<svg width="174" height="32" viewBox="0 0 174 32" fill="none" xmlns="http://www.w3.org/2000/svg">
<path d="M16.2348 5.34035C16.9703 4.86082 17.6936 4.36119 18.4436 3.90572C20.2567 2.80468 22.0825 1.72468 23.9025 0.634842C24.0369 0.563183 24.164 0.47846 24.2819 0.381891C24.5125 0.163684 24.8102 0.0306529 25.1261 0.00468148C25.442 -0.02129 25.7573 0.061345 26.0202 0.238993C26.1697 0.309144 26.3017 0.41188 26.4065 0.539703C26.5113 0.667527 26.5864 0.817212 26.6262 0.977835C26.666 1.13846 26.6695 1.30596 26.6365 1.46813C26.6035 1.63029 26.5348 1.78302 26.4355 1.91518C26.3836 1.99855 26.3487 2.09138 26.3328 2.18833C26.3169 2.28529 26.3203 2.38444 26.3427 2.48008C26.4603 2.74235 26.4835 3.03745 26.4082 3.31493C26.3329 3.59242 26.1639 3.83507 25.93 4.00144C25.1882 4.58433 24.4182 5.13123 23.6589 5.69111C23.3746 5.90034 23.0865 6.10537 22.8002 6.31229L22.8754 6.41785C23.6786 5.9313 24.4785 5.43816 25.2873 4.96082C25.7471 4.68957 26.222 4.44405 26.6903 4.18743L26.8543 4.10594C27.1338 3.94024 27.4637 3.88149 27.783 3.94053C28.1023 3.99958 28.3896 4.17243 28.5918 4.4272C28.7553 4.71231 28.7995 5.0508 28.7145 5.36848C28.6296 5.68615 28.4225 5.95709 28.1387 6.1219C26.9642 7.04834 25.7031 7.86608 24.5457 8.81219C21.5898 11.2287 18.6709 13.6899 15.7385 16.135C15.6473 16.2068 15.5855 16.3095 15.5644 16.4238C15.8925 16.1999 16.2238 15.9809 16.5482 15.7516C19.0861 13.8638 21.7454 12.146 24.5088 10.6094C25.3611 10.1689 26.2474 9.79803 27.1591 9.50053C27.4515 9.37268 27.7804 9.3561 28.0842 9.45387C28.388 9.55165 28.6458 9.75709 28.8094 10.0317C28.9654 10.3088 29.0244 10.6303 28.977 10.9449C28.9295 11.2595 28.7783 11.5492 28.5476 11.7676C28.1683 12.179 27.6906 12.4978 27.2704 12.8734C27.1452 12.9856 26.9636 13.1654 26.9818 13.2885C27.0094 13.651 26.9309 14.0137 26.7558 14.3321C26.5808 14.6505 26.3169 14.9107 25.9964 15.0807C24.0752 16.5653 22.1305 18.0196 20.1967 19.4881C20.0188 19.6231 19.855 19.7769 19.6847 19.922L19.7415 20.0197C20.1959 19.83 20.6639 19.6673 21.1024 19.446C22.7095 18.635 24.2992 17.7889 25.9122 16.9899C26.4721 16.7144 27.0571 16.4937 27.6593 16.3309C27.9091 16.2455 28.1815 16.2545 28.4252 16.3562C28.6689 16.458 28.8672 16.6455 28.9828 16.8836C29.0958 17.1306 29.1144 17.4107 29.035 17.6706C28.9556 17.9305 28.7839 18.1521 28.5523 18.2933C28.132 18.612 27.6777 18.8857 27.2385 19.1794L27.3091 19.3091C27.9592 18.9901 28.6082 18.6686 29.2597 18.3531C29.5892 18.1937 29.9169 18.0259 30.2574 17.8954C30.5092 17.7511 30.8068 17.7102 31.088 17.7812C31.3692 17.8522 31.6121 18.0296 31.7658 18.2762C31.9194 18.5228 31.9719 18.8195 31.9122 19.1041C31.8526 19.3887 31.6854 19.639 31.4457 19.8027C30.7035 20.4128 29.9192 20.973 29.1363 21.5313C28.0297 22.3205 26.9074 23.0874 25.7937 23.8666C25.642 23.9632 25.5234 24.1041 25.4539 24.2704C26.1288 24.0254 26.8106 23.7978 27.4767 23.5308C28.2278 23.2298 28.9605 22.8843 29.709 22.5778C29.9497 22.4828 30.2017 22.4199 30.4586 22.3906C30.6484 22.3527 30.8453 22.3764 31.0208 22.4582C31.1963 22.54 31.3413 22.6757 31.4348 22.8457C31.5276 23.0151 31.5665 23.209 31.5464 23.4013C31.5262 23.5936 31.4479 23.7751 31.3219 23.9215L31.0794 24.257C31.2498 24.319 31.3897 24.363 31.524 24.4203C31.6767 24.4759 31.8063 24.5815 31.8918 24.7201C31.9773 24.8586 32.0138 25.022 31.9953 25.1839C32.0071 25.3564 31.953 25.527 31.8438 25.6609C31.7347 25.7948 31.5788 25.8819 31.4078 25.9046C30.4792 26.0841 29.5948 26.4448 28.8048 26.9662C26.3828 28.1617 23.9767 29.3899 21.557 30.5904C21.1003 30.8029 20.6323 30.99 20.1551 31.1507C19.8797 31.2757 19.5693 31.3 19.2779 31.2192C18.9865 31.1384 18.7326 30.9577 18.5603 30.7085C18.3726 30.4679 18.2182 30.4907 17.9762 30.5823C16.7638 31.0414 15.5525 31.5055 14.3239 31.9173C13.9704 32.0067 13.6026 32.0238 13.2424 31.9677C13.0109 31.9536 12.7895 31.8683 12.6081 31.7235C12.4267 31.5787 12.2942 31.3814 12.2286 31.1584C12.1498 30.9401 12.1369 30.7034 12.1914 30.4778C12.246 30.2523 12.3655 30.0478 12.5351 29.8899C12.7785 29.6741 12.9979 29.4326 13.1897 29.1697C12.9063 29.2964 12.6155 29.4057 12.3189 29.497C11.8734 29.6388 11.4116 29.7228 10.9448 29.747C10.725 29.7552 10.5072 29.7016 10.3162 29.5921C10.1252 29.4827 9.9685 29.3219 9.8639 29.1278C9.75929 28.9337 9.71092 28.7142 9.72427 28.494C9.73762 28.2738 9.81214 28.0617 9.93942 27.8817L10.0591 27.6424C9.87464 27.6424 9.7357 27.631 9.59936 27.6444C9.30729 27.7141 9.00106 27.694 8.72052 27.5868C8.43999 27.4795 8.19817 27.29 8.02654 27.043C7.9679 27.0001 7.8994 26.9729 7.82744 26.9637C7.75547 26.9546 7.68236 26.9639 7.61492 26.9907C6.82069 27.4742 6.06296 28.0207 5.2535 28.4752C4.58292 28.8583 3.87867 29.1788 3.14962 29.4327C2.86912 29.524 2.56604 29.5175 2.28972 29.4141C2.01341 29.3107 1.78011 29.1166 1.62781 28.8633C1.48791 28.6939 1.29797 28.5734 1.08539 28.5192C0.864211 28.4852 0.655803 28.3936 0.480964 28.2535C0.306124 28.1135 0.170968 27.9299 0.0889796 27.7211C0.00699148 27.5123 -0.01896 27.2856 0.0137149 27.0636C0.0463898 26.8416 0.136548 26.632 0.275194 26.4559C0.869194 25.7593 1.50416 25.0989 2.1767 24.4782C3.39507 23.2548 4.61699 22.035 5.84245 20.8186C5.95399 20.7168 6.02853 20.5806 6.05431 20.4315C5.86468 20.5294 5.66965 20.6163 5.47016 20.6919C5.07639 20.8488 4.66668 20.9621 4.24835 21.0296C4.05396 21.0611 3.85483 21.0438 3.66872 20.9793C3.48262 20.9148 3.31533 20.8051 3.18179 20.66C3.04826 20.5149 2.95263 20.3389 2.90344 20.1477C2.85425 19.9565 2.85304 19.756 2.8999 19.5642C2.94684 19.2685 2.84545 19.1604 2.60668 19.0459C2.43709 18.9839 2.28207 18.8875 2.15129 18.7628C2.02051 18.638 1.91677 18.4876 1.84657 18.3208C1.77636 18.1541 1.7412 17.9746 1.74326 17.7936C1.74532 17.6126 1.78457 17.4339 1.85855 17.2688C2.05912 16.7022 2.4383 16.2164 2.93871 15.8852C3.38798 15.5519 3.82484 15.2017 4.25888 14.8654C4.1135 14.6959 4.00552 14.4975 3.94204 14.2831C3.87857 14.0688 3.86103 13.8434 3.89059 13.6218C3.92015 13.4002 3.99612 13.1874 4.11353 12.9973C4.23094 12.8072 4.38712 12.6442 4.57182 12.519C5.55016 11.5155 6.42785 10.4065 7.45752 9.46192C8.87356 8.16286 10.3772 6.95785 11.8686 5.74384C14.1378 3.85599 16.6109 2.22933 19.2417 0.894381C19.513 0.754882 19.7921 0.631133 20.0775 0.523745C20.2273 0.459375 20.3949 0.450462 20.5506 0.498596C20.7062 0.546731 20.8398 0.64878 20.9274 0.786527C21.0158 0.914241 21.0565 1.06914 21.0424 1.22399C21.0282 1.37884 20.96 1.52372 20.8499 1.63315C20.7203 1.78325 20.5705 1.91451 20.4049 2.02314C19.0985 3.00474 17.7909 3.98459 16.4821 4.96271C16.3685 5.04807 16.2684 5.15101 16.162 5.24652L16.2348 5.34035Z" fill="white"/>
<path d="M44.7978 3.27772V14.8004H47.2921V17.6389H44.7978V29.1616H47.2921V32H42V0.439282H47.2921V3.27772H44.7978ZM57.3708 0.439282V32H54.6404L51.9775 14.6653V32H49.3146V0.439282H51.9775L54.6404 17.5037V0.439282H57.3708ZM67.4494 3.88596V28.114C67.4494 30.7047 66.191 32 63.6742 32H65.1573H63.1685C61.8202 32 60.8539 31.6565 60.2697 30.9694C59.6854 30.2823 59.3933 29.3305 59.3933 28.114V3.88596C59.3933 2.64696 59.6854 1.68955 60.2697 1.01373C60.8539 0.337909 61.8202 0 63.1685 0H64.8202H63.6742C66.191 0 67.4494 1.29532 67.4494 3.88596ZM64.6517 4.25766C64.6517 3.80711 64.5618 3.45231 64.382 3.19324C64.2022 2.93418 63.8764 2.80465 63.4045 2.80465C62.9326 2.80465 62.6124 2.93418 62.4438 3.19324C62.2753 3.45231 62.191 3.80711 62.191 4.25766V27.7423C62.191 28.1929 62.2753 28.5477 62.4438 28.8068C62.6124 29.0658 62.9326 29.1954 63.4045 29.1954C63.8764 29.1954 64.2022 29.0658 64.382 28.8068C64.5618 28.5477 64.6517 28.1929 64.6517 27.7423V4.25766ZM77.5281 3.24393H74.8989V32H72.1011V3.24393H69.4719V0.439282H77.5281V3.24393ZM82.3483 3.27772V14.8004H84.8427V17.6389H82.3483V29.1616H84.8427V32H79.5506V0.439282H84.8427V3.27772H82.3483ZM94.9213 32H92.1573L92.1236 22.3358C92.1236 21.5248 92.0449 20.8434 91.8876 20.2914C91.7303 19.7395 91.427 19.1257 90.9775 18.4498C90.4607 19.2383 90.1124 19.9254 89.9326 20.5111C89.7528 21.0968 89.6629 21.8515 89.6629 22.7751V32H86.8652V0.439282H91.1461C93.6629 0.439282 94.9213 1.74586 94.9213 4.35903V9.22492C94.9213 10.7117 94.7753 11.8944 94.4831 12.773C94.191 13.6515 93.6067 14.7216 92.7303 15.9831C93.5843 17.1996 94.1629 18.2415 94.4663 19.1088C94.7697 19.9761 94.9213 21.1193 94.9213 22.5385V32ZM92.1236 4.69694C92.1236 4.24639 92.0393 3.89159 91.8708 3.63252C91.7022 3.37346 91.382 3.24393 90.9101 3.24393H89.6629V15.4087C89.7303 15.3411 89.7809 15.2735 89.8146 15.2059C89.8483 15.1383 89.8876 15.082 89.9326 15.037C90.8315 13.798 91.4213 12.8462 91.7022 12.1816C91.9831 11.5171 92.1236 10.6667 92.1236 9.63041V4.69694ZM99.7416 0.439282V32H96.9438V0.439282H99.7416ZM101.629 32L103.281 0.439282H108.034L109.685 32H107.09L106.753 25.4108L106.281 26.0866C105.697 26.8976 105.27 27.5509 105 28.0465C104.73 28.5421 104.551 29.0208 104.461 29.4826C104.371 29.9444 104.303 30.5695 104.258 31.358L104.225 32H101.629ZM106.079 21.0517C106.281 20.4886 106.382 19.6888 106.382 18.6526L105.64 4.66315L104.663 23.4847C105.404 22.4259 105.876 21.6149 106.079 21.0517ZM126.539 4.35903V9.08976C126.539 10.2612 126.449 11.2298 126.27 11.9958C126.09 12.7617 125.803 13.4995 125.41 14.2091C125.017 14.9187 124.371 15.9043 123.472 17.1658C122.551 18.4273 121.949 19.3847 121.669 20.038C121.388 20.6913 121.247 21.5361 121.247 22.5723V32H118.449V0.439282H122.764C125.281 0.439282 126.539 1.74586 126.539 4.35903ZM121.247 3.24393V15.4087C121.449 15.1383 121.562 14.9919 121.584 14.9694C122.483 13.7304 123.067 12.773 123.337 12.0971C123.607 11.4213 123.742 10.5428 123.742 9.46146V4.69694C123.742 4.24639 123.652 3.89159 123.472 3.63252C123.292 3.37346 122.966 3.24393 122.494 3.24393H121.247ZM131.36 0.439282V29.1616H133.82V32H128.562V0.439282H131.36ZM135.708 32L137.36 0.439282H142.112L143.764 32H141.169L140.831 25.4108L140.36 26.0866C139.775 26.8976 139.348 27.5509 139.079 28.0465C138.809 28.5421 138.629 29.0208 138.539 29.4826C138.449 29.9444 138.382 30.5695 138.337 31.358L138.303 32H135.708ZM140.157 21.0517C140.36 20.4886 140.461 19.6888 140.461 18.6526L139.719 4.66315L138.742 23.4847C139.483 22.4259 139.955 21.6149 140.157 21.0517ZM153.843 3.24393H151.213V32H148.416V3.24393H145.787V0.439282H153.843V3.24393ZM163.921 3.88596V28.114C163.921 30.7047 162.663 32 160.146 32H161.629H159.64C158.292 32 157.326 31.6565 156.742 30.9694C156.157 30.2823 155.865 29.3305 155.865 28.114V3.88596C155.865 2.64696 156.157 1.68955 156.742 1.01373C157.326 0.337909 158.292 0 159.64 0H161.292H160.146C162.663 0 163.921 1.29532 163.921 3.88596ZM161.124 4.25766C161.124 3.80711 161.034 3.45231 160.854 3.19324C160.674 2.93418 160.348 2.80465 159.876 2.80465C159.404 2.80465 159.084 2.93418 158.916 3.19324C158.747 3.45231 158.663 3.80711 158.663 4.25766V27.7423C158.663 28.1929 158.747 28.5477 158.916 28.8068C159.084 29.0658 159.404 29.1954 159.876 29.1954C160.348 29.1954 160.674 29.0658 160.854 28.8068C161.034 28.5477 161.124 28.1929 161.124 27.7423V4.25766ZM174 0.439282V32H171.27L168.607 14.6653V32H165.944V0.439282H168.607L171.27 17.5037V0.439282H174Z" fill="white"/>
</svg>
