<svg width="20" height="16" viewBox="0 0 20 16" fill="none" xmlns="http://www.w3.org/2000/svg">
<path d="M19.5 1.86044C18.8452 2.30784 18.0764 2.5454 17.2907 2.54315C18.1308 2.03341 18.7597 1.22354 19.0581 0.267437C18.3618 0.873808 17.4843 1.21527 16.5727 1.23462C15.9716 0.600508 15.1871 0.18429 14.3369 0.0484272C13.4867 -0.0874361 12.6167 0.0643832 11.8574 0.481101C11.098 0.897819 10.4904 1.55696 10.1256 2.3596C9.76086 3.16224 9.65864 4.06509 9.8343 4.93265C8.28743 4.84853 6.77502 4.43024 5.39528 3.70493C4.01554 2.97962 2.79932 1.96351 1.82558 0.722581C1.34909 1.6107 1.20958 2.64938 1.43407 3.6374C1.65856 4.62542 2.23108 5.49244 3.0407 6.07051C2.42967 6.07941 1.82487 5.94313 1.27326 5.67226C1.28811 6.58871 1.60093 7.47355 2.16167 8.18523C2.72241 8.89691 3.49867 9.39432 4.36628 9.59787C3.78874 9.75323 3.18466 9.77267 2.59884 9.65477C2.85155 10.4666 3.34391 11.1771 4.00726 11.687C4.67062 12.1969 5.4719 12.4809 6.29942 12.4994C4.55172 13.5915 2.5441 14.1627 0.5 14.1493C2.21195 15.3005 4.20048 15.9398 6.24424 15.996C8.28799 16.0521 10.3068 15.5229 12.0759 14.4673C13.8449 13.4117 15.2949 11.871 16.2644 10.0169C17.2338 8.16279 17.6847 6.06791 17.5669 3.96548C18.2957 3.35152 18.9453 2.64411 19.5 1.86044Z" fill="white"/>
</svg>
